<svg width="395" height="111" viewBox="0 0 395 111" fill="none" xmlns="http://www.w3.org/2000/svg">
<path d="M68.064 91.336C66.272 91.336 64.768 90.568 63.552 89.032C62.336 87.56 61.44 85.736 60.864 83.56C60.288 81.384 60 79.304 60 77.32C60 73.48 60.544 69.224 61.632 64.552C62.72 59.88 64.064 55.112 65.664 50.248C67.328 45.384 69.024 40.712 70.752 36.232C72.544 31.688 74.144 27.592 75.552 23.944C76.96 20.296 77.952 17.384 78.528 15.208C78.656 14.632 78.752 14.12 78.816 13.672C78.88 13.16 78.912 12.744 78.912 12.424C78.912 11.272 78.56 10.696 77.856 10.696C76.832 10.696 75.296 11.752 73.248 13.864C71.2 15.912 68.896 18.728 66.336 22.312C63.84 25.832 61.344 29.832 58.848 34.312C56.352 38.792 54.112 43.432 52.128 48.232C50.208 52.968 48.864 57.608 48.096 62.152C47.84 63.816 47.392 65.064 46.752 65.896C46.176 66.728 45.6 67.144 45.024 67.144C44.512 67.144 44.064 66.824 43.68 66.184C43.296 65.544 43.104 64.616 43.104 63.4C43.04 58.28 42.88 53.16 42.624 48.04C42.368 42.856 41.792 37.896 40.896 33.16C39.552 25.864 38.016 20.68 36.288 17.608C34.624 14.536 32.896 13 31.104 13C29.44 13 27.808 14.024 26.208 16.072C24.672 18.056 23.2 20.712 21.792 24.04C20.384 27.304 19.136 30.888 18.048 34.792C16.96 38.696 16.096 42.568 15.456 46.408C14.88 50.248 14.592 53.672 14.592 56.68C14.592 57.384 14.592 58.088 14.592 58.792C14.656 59.432 14.72 60.04 14.784 60.616C14.848 60.936 14.88 61.288 14.88 61.672C14.88 61.992 14.88 62.312 14.88 62.632C14.88 64.104 14.688 65.416 14.304 66.568C13.92 67.72 13.472 68.296 12.96 68.296C12.448 68.296 11.968 67.72 11.52 66.568C11.008 65.416 10.592 63.976 10.272 62.248C9.952 60.456 9.696 58.952 9.504 57.736C9.376 56.84 9.088 55.496 8.64 53.704C8.256 51.912 7.776 49.96 7.2 47.848C6.624 45.672 5.952 43.56 5.184 41.512C4.48 39.4 3.712 37.608 2.88 36.136C2.048 34.6 1.184 33.608 0.288 33.16C0.16 33.032 0.096 32.904 0.096 32.776C0.096 32.456 0.416 32.264 1.056 32.2C1.76 32.136 2.24 32.168 2.496 32.296C3.84 32.68 5.024 33.64 6.048 35.176C7.136 36.648 8.064 38.408 8.832 40.456C9.664 42.44 10.368 44.424 10.944 46.408C11.52 48.328 12 49.928 12.384 51.208C13.088 46.792 13.92 42.44 14.88 38.152C15.904 33.8 17.248 29.544 18.912 25.384C21.28 19.624 23.616 15.528 25.92 13.096C28.224 10.6 30.4 9.352 32.448 9.352C34.624 9.352 36.576 10.472 38.304 12.712C40.096 14.888 41.6 17.8 42.816 21.448C44.096 25.032 44.96 28.936 45.408 33.16C45.664 35.336 45.824 37.704 45.888 40.264C45.952 42.76 45.984 45.224 45.984 47.656V55.144C45.984 56.232 45.984 57.224 45.984 58.12C45.984 59.016 46.016 59.752 46.08 60.328C46.528 58.792 47.264 56.648 48.288 53.896C49.312 51.08 50.56 47.944 52.032 44.488C53.504 40.968 55.168 37.352 57.024 33.64C58.88 29.928 60.864 26.376 62.976 22.984C65.152 19.528 67.392 16.52 69.696 13.96C72.064 11.336 74.432 9.416 76.8 8.2C78.208 7.496 79.52 7.144 80.736 7.144C82.144 7.144 83.328 7.56 84.288 8.392C85.248 9.16 85.728 10.312 85.728 11.848C85.728 14.152 85.248 16.456 84.288 18.76C83.328 21 82.176 23.208 80.832 25.384C79.488 27.56 78.24 29.672 77.088 31.72C75.04 35.432 72.992 39.72 70.944 44.584C68.896 49.448 67.168 54.472 65.76 59.656C64.416 64.84 63.744 69.832 63.744 74.632C63.744 76.168 63.808 77.672 63.936 79.144C64.128 80.616 64.416 82.024 64.8 83.368C65.376 85.416 66.08 86.824 66.912 87.592C67.808 88.424 68.704 88.84 69.6 88.84C70.56 88.84 71.456 88.552 72.288 87.976C73.12 87.464 73.792 86.888 74.304 86.248C74.816 85.672 75.04 85.32 74.976 85.192C75.552 85 75.776 85.16 75.648 85.672C75.52 86.248 75.264 86.824 74.88 87.4C74.496 88.04 74.24 88.424 74.112 88.552C71.872 90.408 69.856 91.336 68.064 91.336ZM88.29 74.248C85.986 74.248 83.97 72.904 82.242 70.216C80.578 67.464 79.746 63.144 79.746 57.256C79.746 53.416 80.226 50.344 81.186 48.04C82.146 45.672 83.33 43.944 84.738 42.856C86.146 41.768 87.49 41.224 88.77 41.224C90.05 41.224 91.138 41.672 92.034 42.568C92.93 43.4 93.378 44.616 93.378 46.216C93.378 47.752 92.93 49.384 92.034 51.112C91.138 52.776 90.05 54.312 88.77 55.72C87.554 57.064 86.338 57.96 85.122 58.408C84.866 58.536 84.546 58.6 84.162 58.6C83.906 58.6 83.778 58.504 83.778 58.312C83.778 57.8 84.29 57.224 85.314 56.584C86.594 55.688 87.81 54.344 88.962 52.552C90.114 50.696 90.69 49.064 90.69 47.656C90.69 46.824 90.498 46.184 90.114 45.736C89.73 45.224 89.282 44.968 88.77 44.968C87.81 44.968 86.754 45.736 85.602 47.272C84.514 48.744 83.714 51.304 83.202 54.952C83.074 55.976 82.946 56.968 82.818 57.928C82.754 58.824 82.722 59.72 82.722 60.616C82.722 64.2 83.266 67.016 84.354 69.064C85.442 71.048 86.882 72.04 88.674 72.04C90.21 72.04 91.938 71.144 93.858 69.352C95.778 67.496 97.666 64.616 99.522 60.712C99.97 59.688 100.482 59.176 101.058 59.176C101.442 59.176 101.634 59.432 101.634 59.944C101.634 60.392 101.506 60.872 101.25 61.384C99.586 65.48 97.57 68.648 95.202 70.888C92.834 73.128 90.53 74.248 88.29 74.248ZM101.945 77.512C100.409 77.512 99.2573 76.84 98.4893 75.496C97.7213 74.216 97.3373 72.584 97.3373 70.6C97.3373 69.192 97.6253 67.432 98.2013 65.32C98.7773 63.208 99.5773 61 100.601 58.696C101.625 56.392 102.777 54.248 104.057 52.264C105.337 50.216 106.649 48.584 107.993 47.368C109.401 46.088 110.777 45.448 112.121 45.448C113.209 45.448 113.977 45.864 114.425 46.696C114.937 47.464 115.193 48.296 115.193 49.192C115.193 49.96 115.033 50.664 114.713 51.304C114.457 51.88 114.073 52.168 113.561 52.168C113.049 52.168 112.665 51.944 112.409 51.496C112.217 50.984 112.025 50.472 111.833 49.96C111.705 49.448 111.353 49.192 110.777 49.192C109.625 49.192 108.473 49.928 107.321 51.4C106.169 52.872 105.113 54.728 104.153 56.968C103.193 59.208 102.425 61.544 101.849 63.976C101.273 66.344 100.985 68.456 100.985 70.312C100.985 71.656 101.145 72.712 101.465 73.48C101.849 74.312 102.457 74.728 103.289 74.728C104.377 74.728 105.465 74.056 106.553 72.712C107.705 71.304 108.825 69.512 109.913 67.336C111.001 65.096 111.993 62.76 112.889 60.328C113.849 57.896 114.649 55.624 115.289 53.512C115.993 51.336 116.537 49.608 116.921 48.328C117.433 43.848 118.041 39.336 118.745 34.792C119.513 30.248 120.633 25.832 122.105 21.544C122.297 20.84 122.585 20.232 122.969 19.72C123.417 19.208 123.865 18.952 124.313 18.952C124.825 18.952 125.241 19.304 125.561 20.008C125.945 20.712 126.137 21.512 126.137 22.408C126.137 23.112 126.009 23.848 125.753 24.616C125.497 25.384 125.177 26.408 124.793 27.688C124.345 29.224 123.769 31.272 123.065 33.832C122.425 36.328 121.753 39.176 121.049 42.376C120.345 45.512 119.737 48.872 119.225 52.456C118.777 55.976 118.553 59.496 118.553 63.016C118.553 65.704 118.745 67.592 119.129 68.68C119.513 69.768 120.025 70.312 120.665 70.312C121.369 70.312 122.137 69.864 122.969 68.968C123.865 68.072 124.729 66.984 125.561 65.704C126.457 64.424 127.257 63.144 127.961 61.864C128.665 60.52 129.209 59.464 129.593 58.696C130.297 57.288 130.841 56.584 131.225 56.584C131.481 56.584 131.609 56.872 131.609 57.448C131.609 57.896 131.513 58.376 131.321 58.888C130.937 59.72 130.681 60.36 130.553 60.808C130.425 61.192 130.265 61.576 130.073 61.96C129.945 62.344 129.625 62.952 129.113 63.784C128.665 64.552 127.961 65.608 127.001 66.952C126.041 68.232 124.953 69.416 123.737 70.504C122.521 71.528 121.305 72.04 120.089 72.04C118.873 72.04 117.945 71.528 117.305 70.504C116.729 69.48 116.345 68.168 116.153 66.568C116.025 64.904 115.961 63.208 115.961 61.48C115.961 59.368 116.057 57.128 116.249 54.76C115.801 56.296 115.193 58.12 114.425 60.232C113.657 62.28 112.793 64.36 111.833 66.472C110.873 68.584 109.849 70.504 108.761 72.232C107.865 73.64 106.873 74.856 105.785 75.88C104.697 76.968 103.417 77.512 101.945 77.512ZM137.639 40.936C137.063 40.936 136.647 40.648 136.391 40.072C136.199 39.432 136.103 38.984 136.103 38.728C136.103 37.704 136.391 36.744 136.967 35.848C137.607 34.888 138.311 34.376 139.079 34.312H139.367C140.135 34.312 140.647 34.504 140.903 34.888C141.223 35.208 141.383 35.624 141.383 36.136C141.383 37.096 140.967 38.152 140.135 39.304C139.303 40.392 138.471 40.936 137.639 40.936ZM132.743 75.304C130.567 75.304 129.095 74.472 128.327 72.808C127.559 71.144 127.175 69.224 127.175 67.048C127.175 64.872 127.399 62.6 127.847 60.232C128.359 57.8 128.903 55.592 129.479 53.608C130.119 51.624 130.599 50.216 130.919 49.384C131.623 47.912 132.327 46.664 133.031 45.64C133.735 44.552 134.503 44.008 135.335 44.008C135.911 44.008 136.327 44.232 136.583 44.68C136.903 45.064 137.062 45.576 137.062 46.216C137.062 47.496 136.711 48.808 136.007 50.152C135.303 51.432 134.663 52.648 134.087 53.8C132.807 56.424 131.783 58.76 131.015 60.808C130.311 62.856 129.959 65.416 129.959 68.488C129.959 70.472 130.151 71.912 130.535 72.808C130.983 73.704 131.591 74.152 132.359 74.152C133.383 74.152 134.567 73.576 135.911 72.424C137.255 71.208 138.631 69.608 140.039 67.624C141.447 65.64 142.695 63.496 143.783 61.192C144.487 59.72 145.031 58.984 145.415 58.984C145.671 58.984 145.799 59.24 145.799 59.752C145.799 60.456 145.511 61.48 144.935 62.824C144.423 64.104 143.783 65.416 143.015 66.76C142.311 68.104 141.639 69.16 140.999 69.928C139.911 71.336 138.663 72.584 137.255 73.672C135.847 74.76 134.343 75.304 132.743 75.304ZM148.013 74.92C146.413 74.92 145.005 74.344 143.789 73.192C142.637 72.104 142.061 70.216 142.061 67.528C142.061 66.12 142.349 64.392 142.925 62.344C143.501 60.232 144.269 58.024 145.229 55.72C146.253 53.416 147.405 51.272 148.685 49.288C149.965 47.304 151.309 45.672 152.717 44.392C154.125 43.112 155.501 42.472 156.845 42.472C157.933 42.472 158.701 42.856 159.149 43.624C159.661 44.392 159.917 45.224 159.917 46.12C159.917 46.888 159.757 47.592 159.437 48.232C159.181 48.808 158.797 49.096 158.285 49.096C157.773 49.096 157.389 48.872 157.133 48.424C156.941 47.912 156.749 47.432 156.557 46.984C156.429 46.472 156.077 46.216 155.501 46.216C154.349 46.216 153.197 46.984 152.045 48.52C150.893 49.992 149.837 51.88 148.877 54.184C147.917 56.488 147.149 58.856 146.573 61.288C145.997 63.72 145.709 65.864 145.709 67.72C145.709 69.32 145.901 70.504 146.285 71.272C146.733 71.976 147.533 72.328 148.685 72.328C150.157 72.328 151.565 71.912 152.909 71.08C154.317 70.184 155.597 69.096 156.749 67.816C157.901 66.536 158.861 65.32 159.629 64.168C160.461 63.016 161.037 62.152 161.357 61.576C162.125 60.104 162.733 59.368 163.181 59.368C163.373 59.368 163.469 59.624 163.469 60.136C163.469 60.776 163.341 61.416 163.085 62.056C162.829 62.632 162.573 63.176 162.317 63.688C161.421 65.608 160.205 67.432 158.669 69.16C157.133 70.824 155.437 72.2 153.581 73.288C151.789 74.376 149.933 74.92 148.013 74.92ZM164.2 72.232C163.048 72.232 162.216 71.752 161.704 70.792C161.192 69.768 160.936 68.584 160.936 67.24C160.936 65.512 161.224 63.496 161.8 61.192C162.44 58.888 163.272 56.52 164.296 54.088C165.32 51.592 166.472 49.32 167.752 47.272C169.096 45.16 170.504 43.464 171.976 42.184C173.448 40.84 174.888 40.168 176.296 40.168C177.576 40.168 178.664 40.744 179.56 41.896C180.52 42.984 181 44.232 181 45.64C181 46.472 180.872 47.176 180.616 47.752C180.36 48.264 180.072 48.52 179.752 48.52C179.496 48.52 179.272 48.328 179.08 47.944C178.44 46.472 177.736 45.416 176.968 44.776C176.264 44.136 175.528 43.816 174.76 43.816C173.48 43.816 172.2 44.552 170.92 46.024C169.704 47.432 168.712 49.064 167.944 50.92C167.304 52.328 166.696 54.024 166.12 56.008C165.608 57.928 165.16 59.848 164.776 61.768C164.456 63.624 164.296 65.16 164.296 66.376C164.296 68.552 164.808 69.64 165.832 69.64C167.112 69.64 168.744 68.232 170.728 65.416C172.2 63.368 173.512 61 174.664 58.312C175.88 55.624 176.904 53.288 177.736 51.304C178.056 50.664 178.408 50.248 178.792 50.056C179.176 49.864 179.528 49.768 179.848 49.768C180.616 49.768 181.096 50.088 181.288 50.728C181.544 51.368 181.672 51.912 181.672 52.36C181.672 54.024 181.512 55.528 181.192 56.872C180.872 58.152 180.712 59.72 180.712 61.576C180.712 62.92 180.808 64.168 181 65.32C181.256 66.408 181.672 66.952 182.248 66.952C182.952 66.952 183.848 66.056 184.936 64.264C185.192 63.752 185.576 63.496 186.088 63.496C186.664 63.496 186.952 63.784 186.952 64.36C186.952 65.192 186.376 66.088 185.224 67.048C184.072 67.944 182.92 68.392 181.768 68.392C180.232 68.392 179.144 67.752 178.504 66.472C177.416 64.36 176.872 62.472 176.872 60.808C176.872 59.08 176.84 57.896 176.776 57.256C176.456 58.024 175.848 59.24 174.952 60.904C174.056 62.504 173 64.2 171.784 65.992C170.568 67.72 169.288 69.192 167.944 70.408C166.6 71.624 165.352 72.232 164.2 72.232ZM200.747 88.264C199.915 88.264 199.115 87.944 198.347 87.304C197.643 86.664 197.035 86.024 196.523 85.384C194.475 83.016 192.747 79.88 191.339 75.976C189.995 72.072 188.971 67.784 188.267 63.112C187.563 58.376 187.211 53.576 187.211 48.712C187.211 44.168 187.499 39.752 188.075 35.464C188.715 31.176 189.675 27.272 190.955 23.752C192.235 20.232 193.835 17.416 195.755 15.304C198.251 12.488 200.651 11.08 202.955 11.08C204.363 11.08 205.483 11.72 206.315 13C207.211 14.216 207.659 16.168 207.659 18.856C207.659 21.416 207.147 24.68 206.123 28.648C205.163 32.552 203.499 37.224 201.131 42.664C200.299 44.456 199.403 46.248 198.443 48.04C197.547 49.832 196.587 51.72 195.562 53.704C195.179 54.472 194.859 54.856 194.603 54.856C194.475 54.856 194.411 54.728 194.411 54.472C194.411 53.96 194.635 53.288 195.083 52.456C200.907 41.512 203.819 30.632 203.819 19.816C203.819 15.528 202.923 13.384 201.131 13.384C199.851 13.384 198.347 14.632 196.619 17.128C194.251 20.648 192.619 24.84 191.723 29.704C190.827 34.504 190.379 39.368 190.379 44.296C190.379 48.008 190.539 51.624 190.859 55.144C191.179 58.6 191.563 61.736 192.011 64.552C192.203 65.768 192.491 67.4 192.875 69.448C193.259 71.496 193.771 73.64 194.411 75.88C195.051 78.184 195.755 80.264 196.523 82.12C197.355 84.04 198.251 85.416 199.211 86.248C199.467 86.44 199.723 86.632 199.979 86.824C200.299 87.08 200.651 87.24 201.035 87.304C201.611 87.304 201.899 87.464 201.899 87.784C201.899 88.104 201.515 88.264 200.747 88.264ZM232.424 109C229.48 109 226.632 107.784 223.88 105.352C221.192 102.92 218.92 99.4 217.064 94.792C215.272 90.184 214.216 84.616 213.896 78.088C211.912 78.28 210.088 78.376 208.424 78.376C204.712 78.376 201.991 77.896 200.264 76.936C198.599 75.976 197.767 74.728 197.767 73.192C197.767 71.656 198.503 69.96 199.976 68.104C201.448 66.248 203.496 64.392 206.12 62.536C208.744 60.616 211.816 58.888 215.336 57.352C216.552 50.824 218.504 43.784 221.192 36.232C223.944 28.616 227.624 20.552 232.232 12.04C232.68 11.208 233.352 10.792 234.248 10.792C234.824 10.792 235.336 10.984 235.784 11.368C236.232 11.752 236.456 12.264 236.456 12.904C236.456 13.224 236.36 13.64 236.168 14.152C232.072 22.408 228.648 29.992 225.896 36.904C223.208 43.752 221.096 50.024 219.56 55.72C222.44 54.632 225.512 53.736 228.776 53.032C232.04 52.328 235.368 51.912 238.76 51.784C239.656 51.784 240.104 51.912 240.104 52.168C240.104 52.424 239.784 52.68 239.144 52.936C238.568 53.128 237.576 53.256 236.168 53.32C233.032 53.512 230.024 53.96 227.144 54.664C224.328 55.304 221.672 56.104 219.176 57.064C218.216 60.776 217.48 64.232 216.968 67.432C216.456 70.568 216.136 73.48 216.008 76.168C222.6 74.76 228.584 72.712 233.96 70.024C239.4 67.272 244.2 64.104 248.36 60.52C252.52 56.936 256.008 53.224 258.824 49.384C260.616 46.952 261.896 44.808 262.664 42.952C263.496 41.032 263.912 39.368 263.912 37.96C263.912 35.912 263.272 34.312 261.992 33.16C260.712 31.944 259.016 31.08 256.904 30.568C254.792 29.992 252.488 29.704 249.992 29.704C247.368 29.704 244.712 29.96 242.024 30.472C239.336 30.92 236.904 31.56 234.728 32.392C234.216 32.52 233.864 32.584 233.672 32.584C232.84 32.584 232.424 32.296 232.424 31.72C232.424 31.144 232.776 30.696 233.48 30.376C241.352 25.896 246.952 21.832 250.28 18.184C253.608 14.536 255.272 11.464 255.272 8.96799C255.272 6.792 254.248 5.128 252.2 3.976C250.216 2.76 247.592 2.152 244.328 2.152C241.768 2.152 238.888 2.568 235.688 3.4C232.488 4.232 229.192 5.576 225.8 7.432C222.984 8.968 220.424 10.792 218.12 12.904C215.88 14.952 213.96 17.096 212.359 19.336C210.824 21.512 209.672 23.592 208.904 25.576C208.136 27.496 207.848 29.128 208.04 30.472C208.04 30.6 208.04 30.76 208.04 30.952C208.104 31.08 208.136 31.208 208.136 31.336C208.136 32.936 207.656 33.736 206.696 33.736C206.248 33.736 205.768 33.416 205.256 32.776C204.808 32.136 204.584 31.176 204.584 29.896C204.584 27.976 205.16 25.928 206.312 23.752C207.528 21.576 209.128 19.4 211.112 17.224C213.16 14.984 215.432 12.904 217.928 10.984C220.424 9 223.016 7.304 225.704 5.89599C229.16 4.04 232.552 2.664 235.88 1.768C239.272 0.871996 242.376 0.423996 245.192 0.423996C249.096 0.423996 252.264 1.192 254.696 2.72799C257.128 4.264 258.344 6.408 258.344 9.16C258.344 11.72 257.096 14.696 254.6 18.088C252.104 21.48 247.912 25.224 242.024 29.32C244.008 29 245.864 28.776 247.592 28.648C249.32 28.456 250.92 28.36 252.392 28.36C257.896 28.36 261.864 29.288 264.296 31.144C266.792 32.936 268.04 35.272 268.04 38.152C268.04 40.264 267.432 42.568 266.216 45.064C265.064 47.496 263.432 50.024 261.32 52.648C258.248 56.424 254.376 60.072 249.704 63.592C245.096 67.112 239.912 70.152 234.152 72.712C228.456 75.272 222.376 77 215.912 77.896C215.784 83.592 216.296 88.296 217.448 92.008C218.664 95.72 220.2 98.6 222.056 100.648C223.912 102.76 225.768 104.232 227.624 105.064C229.48 105.96 231.016 106.408 232.232 106.408C233.128 106.408 233.736 106.248 234.056 105.928C234.312 105.608 234.696 105.448 235.208 105.448C235.72 105.448 236.2 105.64 236.648 106.024C237.096 106.408 237.32 106.824 237.32 107.272C237.32 107.656 237.096 107.944 236.648 108.136C235.24 108.712 233.832 109 232.424 109ZM208.808 77.128C209.512 77.128 210.28 77.064 211.112 76.936C211.944 76.872 212.839 76.776 213.799 76.648C213.736 73.96 213.8 71.144 213.992 68.2C214.184 65.256 214.536 62.184 215.048 58.984C210.952 61.096 207.72 63.464 205.352 66.088C202.984 68.648 201.8 70.92 201.8 72.904C201.8 74.12 202.376 75.112 203.528 75.88C204.68 76.712 206.44 77.128 208.808 77.128ZM277.665 74.248C275.361 74.248 273.345 72.904 271.617 70.216C269.953 67.464 269.121 63.144 269.121 57.256C269.121 53.416 269.601 50.344 270.561 48.04C271.521 45.672 272.705 43.944 274.113 42.856C275.521 41.768 276.865 41.224 278.145 41.224C279.425 41.224 280.513 41.672 281.409 42.568C282.305 43.4 282.753 44.616 282.753 46.216C282.753 47.752 282.305 49.384 281.409 51.112C280.513 52.776 279.425 54.312 278.145 55.72C276.929 57.064 275.713 57.96 274.497 58.408C274.241 58.536 273.921 58.6 273.537 58.6C273.281 58.6 273.153 58.504 273.153 58.312C273.153 57.8 273.665 57.224 274.689 56.584C275.969 55.688 277.185 54.344 278.337 52.552C279.489 50.696 280.065 49.064 280.065 47.656C280.065 46.824 279.873 46.184 279.489 45.736C279.105 45.224 278.657 44.968 278.145 44.968C277.185 44.968 276.129 45.736 274.977 47.272C273.889 48.744 273.089 51.304 272.577 54.952C272.449 55.976 272.321 56.968 272.193 57.928C272.129 58.824 272.097 59.72 272.097 60.616C272.097 64.2 272.641 67.016 273.729 69.064C274.817 71.048 276.257 72.04 278.049 72.04C279.585 72.04 281.313 71.144 283.233 69.352C285.153 67.496 287.041 64.616 288.897 60.712C289.345 59.688 289.857 59.176 290.433 59.176C290.817 59.176 291.009 59.432 291.009 59.944C291.009 60.392 290.881 60.872 290.625 61.384C288.961 65.48 286.945 68.648 284.577 70.888C282.209 73.128 279.905 74.248 277.665 74.248ZM291.512 72.232C290.36 72.232 289.528 71.752 289.016 70.792C288.504 69.768 288.248 68.584 288.248 67.24C288.248 65.512 288.536 63.496 289.112 61.192C289.752 58.888 290.584 56.52 291.608 54.088C292.632 51.592 293.784 49.32 295.064 47.272C296.408 45.16 297.816 43.464 299.288 42.184C300.76 40.84 302.2 40.168 303.608 40.168C304.888 40.168 305.976 40.744 306.872 41.896C307.832 42.984 308.312 44.232 308.312 45.64C308.312 46.472 308.184 47.176 307.928 47.752C307.672 48.264 307.384 48.52 307.064 48.52C306.808 48.52 306.584 48.328 306.392 47.944C305.752 46.472 305.048 45.416 304.28 44.776C303.576 44.136 302.84 43.816 302.072 43.816C300.792 43.816 299.512 44.552 298.232 46.024C297.016 47.432 296.024 49.064 295.256 50.92C294.616 52.328 294.008 54.024 293.432 56.008C292.92 57.928 292.472 59.848 292.088 61.768C291.768 63.624 291.608 65.16 291.608 66.376C291.608 68.552 292.12 69.64 293.144 69.64C294.424 69.64 296.056 68.232 298.04 65.416C299.512 63.368 300.824 61 301.976 58.312C303.192 55.624 304.216 53.288 305.048 51.304C305.368 50.664 305.72 50.248 306.104 50.056C306.488 49.864 306.84 49.768 307.16 49.768C307.928 49.768 308.408 50.088 308.6 50.728C308.856 51.368 308.984 51.912 308.984 52.36C308.984 54.024 308.824 55.528 308.504 56.872C308.184 58.152 308.024 59.72 308.024 61.576C308.024 62.92 308.12 64.168 308.312 65.32C308.568 66.408 308.984 66.952 309.56 66.952C310.264 66.952 311.16 66.056 312.248 64.264C312.504 63.752 312.888 63.496 313.4 63.496C313.976 63.496 314.264 63.784 314.264 64.36C314.264 65.192 313.688 66.088 312.536 67.048C311.384 67.944 310.232 68.392 309.08 68.392C307.544 68.392 306.456 67.752 305.816 66.472C304.728 64.36 304.184 62.472 304.184 60.808C304.184 59.08 304.152 57.896 304.088 57.256C303.768 58.024 303.16 59.24 302.264 60.904C301.368 62.504 300.312 64.2 299.096 65.992C297.88 67.72 296.6 69.192 295.256 70.408C293.912 71.624 292.664 72.232 291.512 72.232ZM316.059 72.232C315.227 72.232 314.523 71.816 313.947 70.984C313.435 70.152 313.211 68.808 313.275 66.952C313.275 66.056 313.531 64.584 314.043 62.536C314.555 60.424 315.099 58.088 315.675 55.528C316.315 52.968 316.859 50.472 317.307 48.04C317.819 45.608 318.075 43.624 318.075 42.088C318.075 41.384 318.011 40.808 317.883 40.36C317.755 39.848 317.435 39.592 316.923 39.592C316.539 39.592 316.187 39.784 315.867 40.168C315.547 40.488 315.227 40.808 314.907 41.128C314.459 41.704 314.203 41.992 314.139 41.992C314.075 41.992 314.043 41.896 314.043 41.704C314.043 40.936 314.331 40.104 314.907 39.208C315.547 38.248 316.283 37.768 317.115 37.768C318.139 37.768 318.875 38.28 319.323 39.304C319.771 40.264 319.995 41.64 319.995 43.432C319.995 45.416 319.771 47.656 319.323 50.152C318.875 52.648 318.395 54.984 317.883 57.16C317.627 58.184 317.403 59.432 317.211 60.904C317.019 62.376 316.923 63.816 316.923 65.224C316.923 66.44 317.019 67.464 317.211 68.296C317.467 69.064 317.915 69.448 318.555 69.448C319.067 69.448 319.675 69.16 320.379 68.584C321.147 67.944 322.043 66.888 323.067 65.416C324.539 63.368 325.851 61.032 327.003 58.408C328.219 55.72 329.339 53.288 330.363 51.112C330.747 50.216 331.227 49.768 331.803 49.768C333.275 49.768 334.011 50.568 334.011 52.168C334.011 53.384 333.819 54.92 333.435 56.776C333.115 58.568 332.955 60.296 332.955 61.96C332.955 64.968 333.531 66.472 334.683 66.472C335.259 66.472 335.835 66.12 336.411 65.416C337.051 64.648 337.403 64.2 337.467 64.072C337.851 63.624 338.203 63.4 338.523 63.4C338.907 63.4 339.099 63.624 339.099 64.072C339.099 64.904 338.619 65.8 337.659 66.76C336.699 67.72 335.675 68.2 334.587 68.2C333.563 68.2 332.731 67.848 332.091 67.144C331.515 66.376 330.971 65.384 330.459 64.168C329.883 62.696 329.595 61.416 329.595 60.328C329.595 59.24 329.531 58.184 329.403 57.16C328.955 58.696 328.187 60.328 327.099 62.056C326.075 63.784 324.891 65.448 323.547 67.048C322.267 68.584 320.955 69.832 319.611 70.792C318.267 71.752 317.083 72.232 316.059 72.232ZM346.754 88.36C346.114 88.36 345.442 87.944 344.738 87.112C344.098 86.344 343.49 85.256 342.914 83.848C341.954 81.544 341.282 79.112 340.898 76.552C340.514 74.056 340.322 71.528 340.322 68.968C340.322 66.152 340.514 63.4 340.898 60.712C341.282 58.024 341.698 55.592 342.146 53.416C342.466 51.88 342.85 50.248 343.298 48.52C343.746 46.792 344.162 45.416 344.546 44.392C344.162 44.456 343.554 44.68 342.722 45.064C341.89 45.448 341.026 45.832 340.13 46.216C339.298 46.6 338.562 46.792 337.922 46.792C336.962 46.792 336.482 46.248 336.482 45.16C336.482 44.584 336.674 44.072 337.058 43.624C337.506 43.176 338.05 42.824 338.69 42.568C339.97 41.992 341.378 41.576 342.914 41.32C344.45 41 345.474 40.68 345.986 40.36L348.482 34.024C348.738 33.384 349.186 32.36 349.826 30.952C350.53 29.48 351.33 27.912 352.226 26.248C353.186 24.584 354.114 23.08 355.01 21.736C355.714 20.712 356.386 19.912 357.026 19.336C357.666 18.696 358.37 18.376 359.138 18.376C360.29 18.376 360.866 18.824 360.866 19.72C360.866 20.232 360.642 21 360.194 22.024C359.81 23.048 359.074 24.392 357.986 26.056C356.77 27.976 355.522 29.896 354.242 31.816C353.026 33.672 351.97 35.624 351.074 37.672C351.01 37.928 350.85 38.344 350.594 38.92C350.402 39.432 350.242 39.752 350.114 39.88L352.034 39.592C352.546 39.528 353.122 39.496 353.762 39.496C354.402 39.432 355.106 39.4 355.874 39.4C356.962 39.4 357.986 39.464 358.946 39.592C359.97 39.656 360.802 39.816 361.442 40.072C361.762 40.2 362.05 40.36 362.306 40.552C362.626 40.68 362.786 40.808 362.786 40.936C362.786 41.192 361.954 41.32 360.29 41.32C359.33 41.32 357.954 41.48 356.162 41.8C354.434 42.12 352.45 42.632 350.21 43.336C349.122 43.656 348.386 44.104 348.002 44.68C347.618 45.256 347.106 46.632 346.466 48.808C345.506 52.264 344.738 55.592 344.162 58.792C343.586 61.928 343.138 65.128 342.818 68.392C342.754 69.032 342.69 69.704 342.626 70.408C342.626 71.112 342.626 71.88 342.626 72.712C342.626 74.888 342.818 77.16 343.202 79.528C343.65 81.896 344.29 83.944 345.122 85.672C345.314 86.056 345.506 86.408 345.698 86.728C345.954 87.048 346.242 87.272 346.562 87.4C347.01 87.592 347.234 87.816 347.234 88.072C347.234 88.264 347.074 88.36 346.754 88.36ZM355.391 110.728C352.895 110.728 350.879 110.056 349.343 108.712C347.807 107.432 347.039 105.704 347.039 103.528C347.039 101.608 347.583 99.688 348.671 97.768C349.695 95.912 350.975 94.12 352.511 92.392C354.111 90.728 355.711 89.256 357.311 87.976C360.127 85.736 363.455 83.624 367.295 81.64C371.199 79.656 375.583 78.152 380.447 77.128C380.511 76.424 380.543 75.688 380.543 74.92C380.543 74.216 380.543 73.512 380.543 72.808C380.543 67.624 380.191 62.92 379.487 58.696C378.783 54.408 377.983 50.728 377.087 47.656C374.527 53.992 372.255 59.272 370.271 63.496C368.287 67.656 367.199 71.144 367.007 73.96C366.943 74.408 366.655 74.888 366.143 75.4C365.695 75.976 365.183 76.264 364.607 76.264C364.223 76.264 363.839 76.04 363.455 75.592C363.135 75.208 362.911 74.504 362.783 73.48C362.783 73.224 362.751 72.872 362.687 72.424C362.687 71.976 362.687 71.176 362.687 70.024C362.687 68.872 362.687 67.144 362.687 64.84C362.687 62.792 362.623 60.712 362.495 58.6C362.431 56.424 362.207 54.408 361.823 52.552C361.439 50.696 360.863 49.192 360.095 48.04C359.391 46.888 358.399 46.312 357.119 46.312C356.095 46.312 355.135 46.696 354.239 47.464C353.407 48.232 352.703 49 352.127 49.768C351.551 50.472 351.103 50.824 350.783 50.824C350.527 50.824 350.399 50.728 350.399 50.536C350.399 50.408 350.495 50.216 350.687 49.96C350.815 49.64 350.943 49.384 351.071 49.192C351.647 48.36 352.383 47.528 353.279 46.696C354.239 45.864 355.231 45.16 356.255 44.584C357.343 43.944 358.303 43.624 359.135 43.624C360.863 43.624 362.207 44.52 363.167 46.312C364.127 48.04 364.799 50.248 365.183 52.936C365.631 55.624 365.855 58.376 365.855 61.192C365.855 62.408 365.791 63.88 365.663 65.608C365.535 67.336 365.375 68.808 365.183 70.024C366.463 67.656 368.095 64.36 370.079 60.136C372.063 55.912 374.239 51.144 376.607 45.832L375.743 43.336V43.048C375.743 42.408 375.935 41.928 376.319 41.608C376.767 41.288 377.215 41.128 377.663 41.128C378.047 41.128 378.431 41.224 378.815 41.416C379.199 41.608 379.455 41.896 379.583 42.28C380.351 44.008 380.991 46.376 381.503 49.384C382.079 52.392 382.495 55.656 382.751 59.176C383.071 62.632 383.231 66.056 383.231 69.448C383.231 72.008 383.135 74.408 382.943 76.648C384.543 76.328 386.239 76.072 388.031 75.88C389.887 75.688 391.487 75.592 392.831 75.592C393.663 75.592 394.079 75.72 394.079 75.976C394.079 76.488 393.407 76.808 392.063 76.936C390.527 77.064 388.959 77.224 387.359 77.416C385.823 77.672 384.255 77.992 382.655 78.376C381.311 85.736 379.199 91.624 376.319 96.04C373.503 100.52 370.591 103.88 367.583 106.12C365.407 107.72 363.263 108.872 361.151 109.576C359.103 110.344 357.183 110.728 355.391 110.728ZM354.623 108.712C355.711 108.712 356.959 108.488 358.367 108.04C359.839 107.592 361.375 106.888 362.975 105.928C368.095 102.92 372.063 99.112 374.879 94.504C377.695 89.96 379.487 84.776 380.255 78.952C376.479 79.976 372.671 81.448 368.831 83.368C365.055 85.352 361.599 87.656 358.463 90.28C357.055 91.496 355.647 92.872 354.239 94.408C352.895 95.944 351.775 97.512 350.879 99.112C349.983 100.776 349.535 102.376 349.535 103.912C349.535 105.384 349.983 106.536 350.879 107.368C351.775 108.264 353.023 108.712 354.623 108.712Z" fill="#FEFEFE"/>
</svg>
